<?xml version="1.0" encoding="utf-8"?>
<!-- Generator: Adobe Illustrator 27.5.0, SVG Export Plug-In . SVG Version: 6.00 Build 0)  -->
<svg version="1.1" id="Layer_1" xmlns="http://www.w3.org/2000/svg" xmlns:xlink="http://www.w3.org/1999/xlink" x="0px" y="0px"
	 viewBox="0 0 274.433 83.913" style="enable-background:new 0 0 274.433 83.913;" xml:space="preserve">
<g>
	<g>
		<path style="fill:#999999;" d="M88.302,7.458h-0.339V7.12h-0.338V6.78h-0.339V6.441h-0.34V6.102h-0.339V5.765H86.27V5.426h-0.339
			v-0.34h-0.34V4.747h-0.339V4.409h-0.338V4.07h-0.339V3.731h-6.2v30.021c0,12.217-5.317,16.058-12.054,16.058
			c-0.384,0-0.76-0.016-1.133-0.043c-0.142-0.01-0.281-0.028-0.423-0.043c-0.223-0.022-0.445-0.047-0.664-0.08
			c-0.176-0.027-0.349-0.061-0.521-0.094c-0.172-0.033-0.343-0.069-0.513-0.11c-0.194-0.048-0.388-0.099-0.579-0.156
			c-0.131-0.039-0.262-0.084-0.393-0.128c-0.211-0.072-0.421-0.146-0.626-0.231c-0.084-0.035-0.164-0.076-0.247-0.113
			c-0.225-0.102-0.449-0.205-0.666-0.323c-1.449-2.502-2.308-6.058-2.308-11.009V7.458h-0.339V7.12H57.57V6.78h-0.339V6.441h-0.338
			V6.102h-0.34V5.765h-0.339V5.426h-0.338v-0.34h-0.34V4.747h-0.338V4.409h-0.34V4.07h-0.338V3.731h-6.469v29.844
			c0,1.063,0.037,2.074,0.103,3.047c0.018,0.27,0.054,0.515,0.077,0.777c0.061,0.692,0.126,1.378,0.22,2.025
			c0.038,0.258,0.09,0.495,0.133,0.746c0.105,0.624,0.217,1.238,0.354,1.817c0.051,0.212,0.111,0.408,0.165,0.613
			c0.154,0.593,0.32,1.171,0.508,1.718c0.055,0.157,0.115,0.306,0.172,0.46c0.212,0.57,0.436,1.12,0.682,1.639
			c0.051,0.106,0.104,0.208,0.156,0.313c0.271,0.547,0.563,1.068,0.873,1.559c0.039,0.061,0.078,0.12,0.117,0.181
			c0.339,0.52,0.698,1.008,1.08,1.463c0.02,0.024,0.04,0.049,0.061,0.073c0.257,0.304,0.517,0.604,0.793,0.879
			c0.109,0.118,0.226,0.226,0.338,0.339c0.11,0.117,0.226,0.226,0.339,0.339c0.11,0.118,0.227,0.226,0.339,0.339
			c0.11,0.118,0.227,0.226,0.338,0.339c0.111,0.117,0.227,0.226,0.34,0.339c0.109,0.117,0.227,0.225,0.339,0.338
			c0.11,0.118,0.225,0.227,0.339,0.34c0.11,0.118,0.227,0.226,0.339,0.339c0.11,0.117,0.226,0.226,0.338,0.339
			c0.11,0.117,0.227,0.225,0.34,0.338c3.275,3.515,7.877,4.951,13.116,4.951c10.377,0,18.253-5.607,18.253-21.922V7.458z"/>
		<path style="fill:#999999;" d="M179.777,37.302V7.458h-0.339V7.12H179.1V6.78h-0.338V6.441h-0.339V6.102h-0.339V5.765h-0.339
			V5.426h-0.339v-0.34h-0.339V4.747h-0.339V4.409h-0.339V4.07h-0.339V3.731h-6.2v30.021c0,12.217-5.317,16.058-12.053,16.058
			c-0.384,0-0.761-0.016-1.134-0.043c-0.143-0.01-0.281-0.028-0.422-0.043c-0.225-0.022-0.447-0.047-0.666-0.08
			c-0.175-0.027-0.349-0.061-0.521-0.094c-0.171-0.033-0.342-0.069-0.512-0.11c-0.195-0.048-0.388-0.099-0.578-0.156
			c-0.133-0.039-0.262-0.084-0.393-0.128c-0.211-0.072-0.422-0.146-0.627-0.231c-0.083-0.035-0.164-0.076-0.246-0.113
			c-0.226-0.102-0.449-0.205-0.666-0.323c-1.451-2.502-2.309-6.058-2.309-11.009V7.458h-0.34V7.12h-0.339V6.78h-0.339V6.441h-0.338
			V6.102h-0.339V5.765h-0.339V5.426h-0.339v-0.34h-0.339V4.747h-0.339V4.409h-0.339V4.07h-0.339V3.731h-6.469v29.844
			c0,1.063,0.037,2.074,0.103,3.047c0.018,0.27,0.055,0.515,0.078,0.777c0.06,0.692,0.125,1.378,0.219,2.025
			c0.037,0.258,0.09,0.495,0.133,0.746c0.105,0.624,0.218,1.238,0.354,1.817c0.051,0.212,0.111,0.408,0.165,0.613
			c0.155,0.593,0.321,1.171,0.508,1.718c0.055,0.157,0.115,0.306,0.173,0.46c0.21,0.57,0.436,1.12,0.681,1.639
			c0.05,0.106,0.105,0.208,0.156,0.313c0.272,0.547,0.562,1.068,0.873,1.559c0.039,0.061,0.079,0.12,0.118,0.181
			c0.339,0.52,0.698,1.008,1.078,1.463c0.02,0.024,0.041,0.049,0.061,0.073c0.257,0.304,0.517,0.604,0.792,0.879
			c0.111,0.118,0.227,0.226,0.339,0.339c0.11,0.117,0.227,0.226,0.34,0.339c0.109,0.118,0.226,0.226,0.339,0.339
			c0.109,0.118,0.225,0.226,0.338,0.339c0.109,0.117,0.227,0.226,0.339,0.339c0.11,0.117,0.227,0.225,0.339,0.338
			c0.11,0.118,0.227,0.227,0.34,0.34c0.109,0.118,0.226,0.226,0.338,0.339c0.109,0.117,0.226,0.226,0.339,0.339
			c0.109,0.117,0.227,0.225,0.339,0.338c3.276,3.515,7.877,4.951,13.115,4.951C171.9,59.224,179.777,53.616,179.777,37.302z"/>
		<polygon style="fill:#999999;" points="267.233,52.819 267.233,52.48 266.894,52.48 266.894,52.142 266.555,52.142 
			266.555,51.803 266.217,51.803 266.217,51.465 265.878,51.465 265.878,51.125 265.538,51.125 265.538,50.786 265.199,50.786 
			265.199,50.447 264.861,50.447 264.861,50.109 264.522,50.109 264.522,49.77 264.184,49.77 264.184,49.431 263.844,49.431 
			263.844,49.092 243.967,49.092 243.967,34.338 263.227,34.338 263.227,28.863 262.888,28.863 262.888,28.523 262.548,28.523 
			262.548,28.185 262.209,28.185 262.209,27.847 261.871,27.847 261.871,27.508 261.532,27.508 261.532,27.169 261.193,27.169 
			261.193,26.829 260.853,26.829 260.853,26.491 260.516,26.491 260.516,26.152 260.177,26.152 260.177,25.813 259.838,25.813 
			259.838,25.474 259.5,25.474 259.5,25.136 243.967,25.136 243.967,12.934 266.797,12.934 266.797,7.458 266.459,7.458 
			266.459,7.12 266.12,7.12 266.12,6.78 265.781,6.78 265.781,6.441 265.442,6.441 265.442,6.102 265.103,6.102 265.103,5.765 
			264.765,5.765 264.765,5.426 264.426,5.426 264.426,5.086 264.087,5.086 264.087,4.747 263.748,4.747 263.748,4.409 
			263.409,4.409 263.409,4.07 263.071,4.07 263.071,3.731 233.77,3.731 233.77,54.567 234.109,54.567 234.109,54.906 
			234.448,54.906 234.448,55.245 234.787,55.245 234.787,55.584 235.126,55.584 235.126,55.922 235.465,55.922 235.465,56.262 
			235.803,56.262 235.803,56.601 236.142,56.601 236.142,56.939 236.48,56.939 236.48,57.277 236.82,57.277 236.82,57.617 
			237.158,57.617 237.158,57.956 237.497,57.956 237.497,58.295 267.572,58.295 267.572,52.819 		"/>
		<polygon style="fill:#999999;" points="134.042,7.12 133.703,7.12 133.703,6.78 133.365,6.78 133.365,6.441 133.025,6.441 
			133.025,6.102 132.688,6.102 132.688,5.765 132.348,5.765 132.348,5.426 132.01,5.426 132.01,5.086 131.671,5.086 131.671,4.747 
			131.331,4.747 131.331,4.409 130.992,4.409 130.992,4.07 130.654,4.07 130.654,3.731 93.428,3.731 93.428,9.206 93.767,9.206 
			93.767,9.545 94.105,9.545 94.105,9.885 94.444,9.885 94.444,10.223 94.783,10.223 94.783,10.561 95.121,10.561 95.121,10.9 
			95.461,10.9 95.461,11.24 95.799,11.24 95.799,11.578 96.139,11.578 96.139,11.917 96.477,11.917 96.477,12.256 96.815,12.256 
			96.815,12.595 97.155,12.595 97.155,12.934 108.806,12.934 108.806,54.567 109.145,54.567 109.145,54.906 109.482,54.906 
			109.482,55.245 109.822,55.245 109.822,55.584 110.161,55.584 110.161,55.922 110.5,55.922 110.5,56.262 110.84,56.262 
			110.84,56.601 111.177,56.601 111.177,56.939 111.517,56.939 111.517,57.277 111.855,57.277 111.855,57.617 112.193,57.617 
			112.193,57.956 112.532,57.956 112.532,58.295 119.002,58.295 119.002,12.934 134.381,12.934 134.381,7.458 134.042,7.458 		"/>
		<polygon style="fill:#999999;" points="10.342,54.906 10.68,54.906 10.68,55.245 11.019,55.245 11.019,55.584 11.357,55.584 
			11.357,55.922 11.696,55.922 11.696,56.262 12.035,56.262 12.035,56.601 12.374,56.601 12.374,56.939 12.713,56.939 
			12.713,57.277 13.052,57.277 13.052,57.617 13.391,57.617 13.391,57.956 13.729,57.956 13.729,58.295 20.197,58.295 
			20.197,35.552 39.572,35.552 39.572,30.076 39.233,30.076 39.233,29.738 38.894,29.738 38.894,29.399 38.555,29.399 
			38.555,29.061 38.217,29.061 38.217,28.722 37.878,28.722 37.878,28.383 37.539,28.383 37.539,28.044 37.199,28.044 
			37.199,27.705 36.861,27.705 36.861,27.366 36.522,27.366 36.522,27.028 36.184,27.028 36.184,26.688 35.845,26.688 35.845,26.35 
			20.197,26.35 20.197,12.934 43.046,12.934 43.046,7.458 42.707,7.458 42.707,7.12 42.368,7.12 42.368,6.78 42.029,6.78 
			42.029,6.441 41.69,6.441 41.69,6.102 41.352,6.102 41.352,5.765 41.013,5.765 41.013,5.426 40.674,5.426 40.674,5.086 
			40.335,5.086 40.335,4.747 39.996,4.747 39.996,4.409 39.657,4.409 39.657,4.07 39.318,4.07 39.318,3.731 10.002,3.731 
			10.002,54.567 10.342,54.567 		"/>
		<path style="fill:#999999;" d="M190.037,54.906h0.339v0.339h0.339v0.339h0.339v0.338h0.339v0.34h0.339v0.339h0.339v0.339h0.339
			v0.338h0.339v0.34h0.339v0.339h0.339v0.339h6.469V36.808h7.582l10.114,17.76h0.145l0.193,0.339h0.146l0.193,0.339h0.145
			l0.192,0.339h0.146l0.192,0.338h0.145l0.194,0.34h0.145l0.194,0.339h0.145l0.192,0.339h0.146l0.192,0.338h0.145l0.193,0.34h0.146
			l0.194,0.339h0.145l0.192,0.339h7.334l-12.952-22.216c6.902-1.692,11.436-6.395,11.436-14.314c0-4.671-1.45-8.001-3.955-10.269
			c-0.113-0.112-0.22-0.231-0.339-0.339c-0.113-0.112-0.221-0.232-0.339-0.34c-0.113-0.111-0.221-0.231-0.338-0.338
			c-0.114-0.111-0.221-0.232-0.34-0.339c-0.113-0.112-0.22-0.231-0.339-0.339c-0.114-0.112-0.22-0.231-0.339-0.339
			c-0.113-0.112-0.22-0.231-0.339-0.339c-0.113-0.111-0.22-0.231-0.338-0.339c-0.114-0.111-0.221-0.231-0.34-0.339
			c-0.112-0.112-0.22-0.231-0.339-0.339c-0.206-0.204-0.422-0.398-0.645-0.587c-0.061-0.051-0.125-0.101-0.188-0.151
			c-0.383-0.311-0.786-0.6-1.212-0.866c-0.073-0.046-0.146-0.094-0.22-0.139c-0.478-0.285-0.975-0.551-1.5-0.786
			c-0.016-0.008-0.029-0.016-0.044-0.022c-1.097-0.488-2.296-0.867-3.579-1.152c-0.157-0.034-0.318-0.064-0.477-0.096
			c-0.474-0.095-0.956-0.178-1.449-0.248c-0.207-0.029-0.412-0.057-0.62-0.082c-0.486-0.059-0.981-0.103-1.486-0.141
			c-0.202-0.015-0.399-0.033-0.605-0.044c-0.701-0.039-1.415-0.063-2.148-0.063h-15.92v50.836h0.338V54.906z M216.525,14.814
			c0.002,0.009,0.004,0.021,0.007,0.029c0.122,0.41,0.21,0.854,0.279,1.314c0.017,0.112,0.032,0.225,0.047,0.34
			c0.058,0.488,0.097,0.996,0.097,1.541c0,6.59-4.354,9.794-12.264,9.794h-4.797V12.706h8.523c3.194,0,5.799,0.396,7.78,1.299
			C216.313,14.269,216.436,14.525,216.525,14.814z"/>
		<path style="fill:#999999;" d="M22.184,65.143H7.552c-0.381,0-0.69,0.31-0.69,0.691v2.248c0,0.381,0.31,0.691,0.69,0.691h5.328
			v12.351c0,0.383,0.31,0.692,0.691,0.692h2.69c0.382,0,0.691-0.31,0.691-0.692V68.773h5.23c0.382,0,0.691-0.311,0.691-0.691v-2.248
			C22.875,65.452,22.565,65.143,22.184,65.143z"/>
		<path style="fill:#999999;" d="M47.068,65.143H35.324c-0.951,0-1.773,0.341-2.446,1.013c-0.671,0.673-1.013,1.498-1.013,2.456
			v12.513c0,0.383,0.31,0.692,0.691,0.692h14.512c0.383,0,0.692-0.31,0.692-0.692v-2.248c0-0.381-0.31-0.69-0.692-0.69H36.036
			v-2.875h11.032c0.383,0,0.692-0.31,0.692-0.691V72.36c0-0.382-0.31-0.691-0.692-0.691H36.036v-2.518
			c0-0.112,0.031-0.188,0.111-0.268c0.08-0.079,0.152-0.11,0.256-0.11h10.665c0.383,0,0.692-0.311,0.692-0.691v-2.248
			C47.761,65.452,47.451,65.143,47.068,65.143z"/>
		<path style="fill:#999999;" d="M74.787,65.143H62.209c-1.495,0-2.794,0.537-3.859,1.595c-1.061,1.061-1.598,2.359-1.598,3.861
			v5.771c0,1.496,0.537,2.791,1.596,3.851c1.067,1.06,2.366,1.597,3.861,1.597h12.578c0.381,0,0.69-0.31,0.69-0.692v-2.248
			c0-0.381-0.31-0.69-0.69-0.69H63.289c-0.657,0-1.199-0.227-1.658-0.691c-0.471-0.471-0.698-1.014-0.698-1.664v-4.69
			c0-0.657,0.228-1.205,0.695-1.673c0.462-0.467,1.005-0.693,1.661-0.693h11.498c0.381,0,0.69-0.311,0.69-0.691v-2.248
			C75.478,65.452,75.168,65.143,74.787,65.143z"/>
		<path style="fill:#999999;" d="M100.753,65.143h-2.788c-0.382,0-0.691,0.31-0.691,0.691v5.728H88.65v-5.728
			c0-0.382-0.31-0.691-0.691-0.691H85.16c-0.383,0-0.691,0.31-0.691,0.691v15.29c0,0.383,0.309,0.692,0.691,0.692h2.799
			c0.382,0,0.691-0.31,0.691-0.692v-5.922h8.623v5.922c0,0.383,0.31,0.692,0.691,0.692h2.788c0.382,0,0.691-0.31,0.691-0.692v-15.29
			C101.444,65.452,101.135,65.143,100.753,65.143z"/>
		<path style="fill:#999999;" d="M123.705,65.143h-7.813c-1.495,0-2.79,0.537-3.85,1.596c-1.065,1.059-1.607,2.358-1.607,3.86
			v10.525c0,0.383,0.31,0.692,0.692,0.692h2.798c0.382,0,0.692-0.31,0.692-0.692V71.14c0-0.657,0.227-1.205,0.693-1.673
			c0.463-0.467,1.005-0.693,1.662-0.693h5.65c0.658,0,1.205,0.228,1.673,0.694c0.46,0.465,0.685,1.014,0.685,1.672v9.974
			c0,0.382,0.31,0.691,0.69,0.691h2.799c0.383,0,0.692-0.31,0.692-0.691V70.599c0-1.502-0.538-2.801-1.598-3.86
			C126.498,65.68,125.199,65.143,123.705,65.143z"/>
		<path style="fill:#999999;" d="M151.421,65.143h-7.811c-1.495,0-2.793,0.537-3.859,1.595c-1.061,1.061-1.598,2.359-1.598,3.861
			v5.771c0,1.496,0.537,2.791,1.596,3.851c1.068,1.06,2.366,1.597,3.861,1.597h7.811c1.495,0,2.794-0.537,3.859-1.595
			c1.061-1.062,1.599-2.357,1.599-3.853v-5.771c0-1.502-0.538-2.801-1.598-3.86C154.215,65.68,152.916,65.143,151.421,65.143z
			 M142.334,71.14c0-0.657,0.227-1.205,0.694-1.673c0.462-0.467,1.005-0.693,1.661-0.693h5.652c0.655,0,1.198,0.227,1.657,0.691
			c0.471,0.47,0.698,1.018,0.698,1.675v4.69c0,0.65-0.228,1.193-0.694,1.66c-0.462,0.469-1.005,0.695-1.661,0.695h-5.652
			c-0.656,0-1.199-0.227-1.658-0.691c-0.471-0.471-0.697-1.014-0.697-1.664V71.14z"/>
		<path style="fill:#999999;" d="M179.992,78.186h-9.574c-0.113,0-0.188-0.032-0.267-0.111c-0.069-0.071-0.101-0.15-0.101-0.268
			V65.834c0-0.382-0.31-0.691-0.691-0.691h-2.799c-0.382,0-0.691,0.31-0.691,0.691v12.514c0,0.957,0.341,1.783,1.013,2.455
			c0.673,0.672,1.498,1.014,2.456,1.014h10.654c0.383,0,0.691-0.31,0.691-0.692v-2.248
			C180.684,78.495,180.375,78.186,179.992,78.186z"/>
		<path style="fill:#999999;" d="M202.943,65.143h-7.813c-1.494,0-2.792,0.537-3.857,1.595c-1.062,1.061-1.599,2.359-1.599,3.861
			v5.771c0,1.496,0.537,2.791,1.597,3.851c1.067,1.06,2.365,1.597,3.859,1.597h7.813c1.495,0,2.793-0.537,3.859-1.595
			c1.061-1.062,1.598-2.357,1.598-3.853v-5.771c0-1.502-0.537-2.801-1.596-3.86C205.736,65.68,204.439,65.143,202.943,65.143z
			 M193.857,71.14c0-0.657,0.226-1.205,0.694-1.673c0.462-0.467,1.005-0.693,1.661-0.693h5.651c0.656,0,1.198,0.227,1.658,0.691
			c0.471,0.47,0.698,1.018,0.698,1.675v4.69c0,0.65-0.227,1.193-0.694,1.66c-0.463,0.469-1.005,0.695-1.662,0.695h-5.651
			c-0.657,0-1.199-0.227-1.657-0.691c-0.472-0.471-0.698-1.014-0.698-1.664V71.14z"/>
		<path style="fill:#999999;" d="M235.427,71.129h-9.628c-0.383,0-0.692,0.31-0.692,0.692v2.258c0,0.382,0.309,0.691,0.692,0.691
			h6.138v1.06c0,0.651-0.225,1.196-0.686,1.664c-0.465,0.464-1.012,0.691-1.67,0.691h-5.652c-0.649,0-1.192-0.228-1.66-0.694
			c-0.468-0.468-0.693-1.011-0.693-1.661v-4.69c0-0.657,0.226-1.205,0.693-1.673c0.468-0.466,1.012-0.693,1.66-0.693h9.479
			c0.381,0,0.691-0.311,0.691-0.691v-2.248c0-0.382-0.311-0.691-0.691-0.691h-10.558c-1.495,0-2.791,0.537-3.851,1.596
			c-1.064,1.059-1.606,2.358-1.606,3.86v5.771c0,1.496,0.542,2.792,1.608,3.853c1.058,1.058,2.354,1.595,3.849,1.595h7.813
			c1.502,0,2.801-0.537,3.86-1.597c1.059-1.06,1.597-2.355,1.597-3.851v-4.548C236.118,71.438,235.809,71.129,235.427,71.129z"/>
		<path style="fill:#999999;" d="M263.144,65.143h-2.799c-0.382,0-0.691,0.31-0.691,0.691v2.918c0,1.215-0.233,2.065-0.694,2.525
			c-0.467,0.468-1.011,0.694-1.662,0.694h-5.65c-0.658,0-1.205-0.227-1.673-0.694c-0.452-0.458-0.683-1.31-0.683-2.525v-2.918
			c0-0.382-0.311-0.691-0.692-0.691h-2.798c-0.383,0-0.692,0.31-0.692,0.691v3.469c0,2.068,0.537,3.654,1.597,4.714
			s2.358,1.597,3.86,1.597h6.732c0.844,0,1.632-0.177,2.356-0.527v0.744c0,0.65-0.227,1.193-0.694,1.66
			c-0.467,0.468-1.011,0.695-1.662,0.695h-11.496c-0.383,0-0.692,0.31-0.692,0.69v2.248c0,0.383,0.31,0.692,0.692,0.692h12.577
			c1.495,0,2.79-0.537,3.851-1.597c1.066-1.059,1.607-2.355,1.607-3.851V65.834C263.835,65.452,263.525,65.143,263.144,65.143z"/>
	</g>
	<g>
		<g>
			<g>
				<g>
					<polygon style="fill:#3565AA;" points="13.729,56.662 20.197,56.662 20.197,33.919 39.572,33.919 39.572,28.444 20.197,28.444 
						20.197,11.301 43.046,11.301 43.046,5.825 13.729,5.825 					"/>
					<path style="fill:#3565AA;" d="M82.102,35.848c0,12.216-5.317,16.057-12.053,16.057c-6.638,0-11.801-3.841-11.801-16.057V5.825
						h-6.469V35.67c0,16.313,7.893,21.921,18.269,21.921c10.377,0,18.253-5.607,18.253-21.921V5.825h-6.2V35.848z"/>
					<polygon style="fill:#3565AA;" points="97.155,11.301 112.532,11.301 112.532,56.662 119.002,56.662 119.002,11.301 
						134.382,11.301 134.382,5.825 97.155,5.825 					"/>
					<path style="fill:#3565AA;" d="M173.578,35.848c0,12.216-5.317,16.057-12.054,16.057c-6.638,0-11.8-3.841-11.8-16.057V5.825
						h-6.469V35.67c0,16.313,7.892,21.921,18.268,21.921c10.376,0,18.253-5.607,18.253-21.921V5.825h-6.199V35.848z"/>
					<path style="fill:#3565AA;" d="M199.895,11.073h8.523c7.909,0,12.264,2.373,12.264,9.059c0,6.59-4.354,9.794-12.264,9.794
						h-8.523V11.073z M227.135,20.133c0-10.589-7.436-14.308-17.789-14.308h-15.92v50.837h6.469V35.176h9.187l12.236,21.486h7.334
						l-12.952-22.216C222.602,32.754,227.135,28.052,227.135,20.133z"/>
					<polygon style="fill:#3565AA;" points="243.967,51.187 243.967,32.705 263.227,32.705 263.227,27.23 243.967,27.23 
						243.967,11.301 266.797,11.301 266.797,5.825 237.497,5.825 237.497,56.662 267.572,56.662 267.572,51.187 					"/>
				</g>
				<g>
					<polygon style="fill:#3362A6;" points="13.391,56.323 19.859,56.323 19.859,33.58 39.233,33.58 39.233,28.105 19.859,28.105 
						19.859,10.963 42.707,10.963 42.707,5.487 13.391,5.487 					"/>
					<path style="fill:#3362A6;" d="M81.764,35.509c0,12.216-5.318,16.057-12.055,16.057c-6.637,0-11.8-3.841-11.8-16.057V5.487
						H51.44V35.33c0,16.314,7.894,21.923,18.269,21.923c10.378,0,18.254-5.608,18.254-21.923V5.487h-6.199V35.509z"/>
					<polygon style="fill:#3362A6;" points="96.815,10.963 112.193,10.963 112.193,56.323 118.663,56.323 118.663,10.963 
						134.042,10.963 134.042,5.487 96.815,5.487 					"/>
					<path style="fill:#3362A6;" d="M173.238,35.509c0,12.216-5.317,16.057-12.053,16.057c-6.638,0-11.801-3.841-11.801-16.057
						V5.487h-6.468V35.33c0,16.314,7.892,21.923,18.269,21.923c10.378,0,18.253-5.608,18.253-21.923V5.487h-6.2V35.509z"/>
					<path style="fill:#3362A6;" d="M199.556,10.734h8.523c7.909,0,12.265,2.373,12.265,9.061c0,6.589-4.355,9.794-12.265,9.794
						h-8.523V10.734z M226.796,19.795c0-10.591-7.435-14.308-17.788-14.308h-15.921v50.836h6.469V34.836h9.187l12.238,21.487h7.332
						L215.36,34.107C222.262,32.414,226.796,27.714,226.796,19.795z"/>
					<polygon style="fill:#3362A6;" points="243.628,50.848 243.628,32.366 262.888,32.366 262.888,26.891 243.628,26.891 
						243.628,10.963 266.459,10.963 266.459,5.487 237.158,5.487 237.158,56.323 267.233,56.323 267.233,50.848 					"/>
				</g>
				<g>
					<polygon style="fill:#315EA2;" points="13.052,55.984 19.521,55.984 19.521,33.242 38.894,33.242 38.894,27.767 19.521,27.767 
						19.521,10.623 42.368,10.623 42.368,5.148 13.052,5.148 					"/>
					<path style="fill:#315EA2;" d="M81.425,35.17c0,12.216-5.317,16.057-12.054,16.057c-6.639,0-11.801-3.841-11.801-16.057V5.148
						h-6.469v29.843c0,16.314,7.892,21.922,18.27,21.922s18.254-5.607,18.254-21.922V5.148h-6.2V35.17z"/>
					<polygon style="fill:#315EA2;" points="96.477,10.623 111.855,10.623 111.855,55.984 118.324,55.984 118.324,10.623 
						133.703,10.623 133.703,5.148 96.477,5.148 					"/>
					<path style="fill:#315EA2;" d="M172.9,35.17c0,12.216-5.318,16.057-12.055,16.057c-6.637,0-11.8-3.841-11.8-16.057V5.148
						h-6.469v29.843c0,16.314,7.894,21.922,18.269,21.922c10.378,0,18.254-5.607,18.254-21.922V5.148H172.9V35.17z"/>
					<path style="fill:#315EA2;" d="M199.217,10.396h8.523c7.91,0,12.265,2.373,12.265,9.061c0,6.59-4.355,9.794-12.265,9.794
						h-8.523V10.396z M226.457,19.456c0-10.591-7.434-14.308-17.788-14.308h-15.921v50.836h6.469V34.497h9.187l12.237,21.487h7.334
						l-12.953-22.217C221.924,32.076,226.457,27.375,226.457,19.456z"/>
					<polygon style="fill:#315EA2;" points="243.288,50.509 243.288,32.027 262.548,32.027 262.548,26.552 243.288,26.552 
						243.288,10.623 266.12,10.623 266.12,5.148 236.82,5.148 236.82,55.984 266.894,55.984 266.894,50.509 					"/>
				</g>
				<g>
					<polygon style="fill:#2E5B9D;" points="12.713,55.645 19.182,55.645 19.182,32.903 38.556,32.903 38.556,27.428 19.182,27.428 
						19.182,10.284 42.029,10.284 42.029,4.809 12.713,4.809 					"/>
					<path style="fill:#2E5B9D;" d="M81.086,34.831c0,12.217-5.317,16.058-12.054,16.058c-6.638,0-11.801-3.841-11.801-16.058V4.809
						h-6.469v29.845c0,16.313,7.893,21.921,18.27,21.921c10.378,0,18.254-5.607,18.254-21.921V4.809h-6.2V34.831z"/>
					<polygon style="fill:#2E5B9D;" points="96.139,10.284 111.517,10.284 111.517,55.645 117.984,55.645 117.984,10.284 
						133.365,10.284 133.365,4.809 96.139,4.809 					"/>
					<path style="fill:#2E5B9D;" d="M172.561,34.831c0,12.217-5.317,16.058-12.054,16.058c-6.638,0-11.801-3.841-11.801-16.058
						V4.809h-6.469v29.845c0,16.313,7.893,21.921,18.27,21.921c10.377,0,18.254-5.607,18.254-21.921V4.809h-6.2V34.831z"/>
					<path style="fill:#2E5B9D;" d="M198.878,10.057h8.523c7.91,0,12.265,2.373,12.265,9.061c0,6.589-4.354,9.794-12.265,9.794
						h-8.523V10.057z M226.117,19.117c0-10.59-7.434-14.309-17.787-14.309h-15.921v50.836h6.469V34.158h9.187l12.237,21.486h7.334
						L214.683,33.43C221.585,31.737,226.117,27.035,226.117,19.117z"/>
					<polygon style="fill:#2E5B9D;" points="242.949,50.17 242.949,31.688 262.209,31.688 262.209,26.214 242.949,26.214 
						242.949,10.284 265.781,10.284 265.781,4.809 236.48,4.809 236.48,55.645 266.555,55.645 266.555,50.17 					"/>
				</g>
				<g>
					<polygon style="fill:#2C5899;" points="12.374,55.307 18.844,55.307 18.844,32.563 38.217,32.563 38.217,27.089 18.844,27.089 
						18.844,9.945 41.69,9.945 41.69,4.47 12.374,4.47 					"/>
					<path style="fill:#2C5899;" d="M80.746,34.492c0,12.216-5.316,16.057-12.053,16.057c-6.638,0-11.8-3.841-11.8-16.057V4.47
						h-6.47v29.845c0,16.314,7.893,21.922,18.27,21.922c10.377,0,18.253-5.607,18.253-21.922V4.47h-6.2V34.492z"/>
					<polygon style="fill:#2C5899;" points="95.799,9.945 111.177,9.945 111.177,55.307 117.646,55.307 117.646,9.945 
						133.025,9.945 133.025,4.47 95.799,4.47 					"/>
					<path style="fill:#2C5899;" d="M172.223,34.492c0,12.216-5.317,16.057-12.054,16.057c-6.638,0-11.8-3.841-11.8-16.057V4.47
						H141.9v29.845c0,16.314,7.892,21.922,18.269,21.922c10.378,0,18.254-5.607,18.254-21.922V4.47h-6.2V34.492z"/>
					<path style="fill:#2C5899;" d="M198.539,9.719h8.523c7.909,0,12.264,2.373,12.264,9.059c0,6.59-4.355,9.794-12.264,9.794
						h-8.523V9.719z M225.779,18.777c0-10.589-7.434-14.308-17.787-14.308H192.07v50.837h6.469V33.82h9.187l12.237,21.486h7.333
						l-12.951-22.216C221.246,31.398,225.779,26.697,225.779,18.777z"/>
					<polygon style="fill:#2C5899;" points="242.611,49.832 242.611,31.351 261.871,31.351 261.871,25.875 242.611,25.875 
						242.611,9.945 265.442,9.945 265.442,4.47 236.142,4.47 236.142,55.307 266.217,55.307 266.217,49.832 					"/>
				</g>
				<g>
					<polygon style="fill:#2A5595;" points="12.035,54.968 18.504,54.968 18.504,32.226 37.878,32.226 37.878,26.751 18.504,26.751 
						18.504,9.607 41.352,9.607 41.352,4.132 12.035,4.132 					"/>
					<path style="fill:#2A5595;" d="M80.408,34.154c0,12.215-5.318,16.056-12.054,16.056c-6.638,0-11.801-3.841-11.801-16.056V4.132
						h-6.468v29.843c0,16.314,7.893,21.923,18.269,21.923c10.378,0,18.253-5.608,18.253-21.923V4.132h-6.199V34.154z"/>
					<polygon style="fill:#2A5595;" points="95.461,9.607 110.84,9.607 110.84,54.968 117.308,54.968 117.308,9.607 132.688,9.607 
						132.688,4.132 95.461,4.132 					"/>
					<path style="fill:#2A5595;" d="M171.885,34.154c0,12.215-5.318,16.056-12.056,16.056c-6.637,0-11.799-3.841-11.799-16.056
						V4.132h-6.469v29.843c0,16.314,7.892,21.923,18.268,21.923c10.378,0,18.255-5.608,18.255-21.923V4.132h-6.199V34.154z"/>
					<path style="fill:#2A5595;" d="M198.2,9.379h8.523c7.909,0,12.265,2.373,12.265,9.061c0,6.589-4.355,9.794-12.265,9.794H198.2
						V9.379z M225.44,18.44c0-10.591-7.434-14.308-17.788-14.308h-15.921v50.836h6.469V33.481h9.187l12.238,21.486h7.332
						l-12.951-22.216C220.908,31.06,225.44,26.358,225.44,18.44z"/>
					<polygon style="fill:#2A5595;" points="242.271,49.492 242.271,31.011 261.532,31.011 261.532,25.536 242.271,25.536 
						242.271,9.607 265.103,9.607 265.103,4.132 235.803,4.132 235.803,54.968 265.878,54.968 265.878,49.492 					"/>
				</g>
				<g>
					<polygon style="fill:#285191;" points="11.696,54.629 18.165,54.629 18.165,31.887 37.539,31.887 37.539,26.411 18.165,26.411 
						18.165,9.268 41.013,9.268 41.013,3.793 11.696,3.793 					"/>
					<path style="fill:#285191;" d="M80.069,33.814c0,12.217-5.317,16.057-12.054,16.057c-6.638,0-11.801-3.84-11.801-16.057V3.793
						h-6.469v29.844c0,16.313,7.894,21.922,18.27,21.922c10.377,0,18.254-5.608,18.254-21.922V3.793h-6.2V33.814z"/>
					<polygon style="fill:#285191;" points="95.121,9.268 110.5,9.268 110.5,54.629 116.969,54.629 116.969,9.268 132.348,9.268 
						132.348,3.793 95.121,3.793 					"/>
					<path style="fill:#285191;" d="M171.545,33.814c0,12.217-5.318,16.057-12.053,16.057c-6.639,0-11.801-3.84-11.801-16.057V3.793
						h-6.469v29.844c0,16.313,7.893,21.922,18.27,21.922c10.377,0,18.253-5.608,18.253-21.922V3.793h-6.2V33.814z"/>
					<path style="fill:#285191;" d="M197.861,9.04h8.523c7.91,0,12.265,2.373,12.265,9.061c0,6.59-4.354,9.794-12.265,9.794h-8.523
						V9.04z M225.102,18.101c0-10.59-7.435-14.308-17.788-14.308h-15.921v50.836h6.469V33.142h9.187l12.238,21.487h7.333
						l-12.952-22.216C220.568,30.721,225.102,26.02,225.102,18.101z"/>
					<polygon style="fill:#285191;" points="241.934,49.153 241.934,30.672 261.193,30.672 261.193,25.196 241.934,25.196 
						241.934,9.268 264.765,9.268 264.765,3.793 235.465,3.793 235.465,54.629 265.538,54.629 265.538,49.153 					"/>
				</g>
				<g>
					<polygon style="fill:#264E8D;" points="11.357,54.29 17.826,54.29 17.826,31.548 37.199,31.548 37.199,26.072 17.826,26.072 
						17.826,8.929 40.674,8.929 40.674,3.454 11.357,3.454 					"/>
					<path style="fill:#264E8D;" d="M79.73,33.476c0,12.217-5.317,16.058-12.054,16.058c-6.638,0-11.8-3.841-11.8-16.058V3.454
						h-6.47v29.844c0,16.313,7.893,21.921,18.27,21.921c10.378,0,18.254-5.607,18.254-21.921V3.454h-6.2V33.476z"/>
					<polygon style="fill:#264E8D;" points="94.783,8.929 110.161,8.929 110.161,54.29 116.631,54.29 116.631,8.929 132.01,8.929 
						132.01,3.454 94.783,3.454 					"/>
					<path style="fill:#264E8D;" d="M171.206,33.476c0,12.217-5.317,16.058-12.054,16.058c-6.637,0-11.8-3.841-11.8-16.058V3.454
						h-6.47v29.844c0,16.313,7.894,21.921,18.27,21.921c10.377,0,18.254-5.607,18.254-21.921V3.454h-6.2V33.476z"/>
					<path style="fill:#264E8D;" d="M197.523,8.701h8.521c7.91,0,12.266,2.373,12.266,9.061c0,6.59-4.355,9.794-12.266,9.794h-8.521
						V8.701z M224.764,17.762c0-10.59-7.436-14.308-17.789-14.308h-15.921V54.29h6.47V32.803h9.186l12.237,21.487h7.333
						l-12.951-22.216C220.23,30.382,224.764,25.681,224.764,17.762z"/>
					<polygon style="fill:#264E8D;" points="241.594,48.814 241.594,30.334 260.853,30.334 260.853,24.858 241.594,24.858 
						241.594,8.929 264.426,8.929 264.426,3.454 235.126,3.454 235.126,54.29 265.199,54.29 265.199,48.814 					"/>
				</g>
				<g>
					<polygon style="fill:#244B89;" points="11.019,53.951 17.487,53.951 17.487,31.209 36.861,31.209 36.861,25.733 17.487,25.733 
						17.487,8.59 40.335,8.59 40.335,3.114 11.019,3.114 					"/>
					<path style="fill:#244B89;" d="M79.392,33.137c0,12.217-5.317,16.058-12.054,16.058c-6.638,0-11.801-3.841-11.801-16.058V3.114
						h-6.469v29.845c0,16.314,7.892,21.922,18.269,21.922c10.378,0,18.253-5.608,18.253-21.922V3.114h-6.199V33.137z"/>
					<polygon style="fill:#244B89;" points="94.444,8.59 109.822,8.59 109.822,53.951 116.291,53.951 116.291,8.59 131.671,8.59 
						131.671,3.114 94.444,3.114 					"/>
					<path style="fill:#244B89;" d="M170.867,33.137c0,12.217-5.317,16.058-12.054,16.058c-6.638,0-11.8-3.841-11.8-16.058V3.114
						h-6.469v29.845c0,16.314,7.892,21.922,18.269,21.922c10.378,0,18.254-5.608,18.254-21.922V3.114h-6.2V33.137z"/>
					<path style="fill:#244B89;" d="M197.184,8.363h8.523c7.909,0,12.265,2.373,12.265,9.059c0,6.59-4.355,9.795-12.265,9.795
						h-8.523V8.363z M224.424,17.422c0-10.589-7.434-14.308-17.787-14.308h-15.922v50.837h6.469V32.465h9.187l12.237,21.486h7.334
						l-12.953-22.216C219.891,30.043,224.424,25.342,224.424,17.422z"/>
					<polygon style="fill:#244B89;" points="241.256,48.477 241.256,29.995 260.516,29.995 260.516,24.52 241.256,24.52 
						241.256,8.59 264.087,8.59 264.087,3.114 234.787,3.114 234.787,53.951 264.861,53.951 264.861,48.477 					"/>
				</g>
				<g>
					<polygon style="fill:#214884;" points="10.68,53.612 17.148,53.612 17.148,30.87 36.522,30.87 36.522,25.396 17.148,25.396 
						17.148,8.252 39.996,8.252 39.996,2.776 10.68,2.776 					"/>
					<path style="fill:#214884;" d="M79.053,32.799c0,12.215-5.317,16.056-12.055,16.056c-6.637,0-11.799-3.841-11.799-16.056V2.776
						H48.73V32.62c0,16.315,7.893,21.922,18.268,21.922c10.378,0,18.254-5.607,18.254-21.922V2.776h-6.199V32.799z"/>
					<polygon style="fill:#214884;" points="94.105,8.252 109.482,8.252 109.482,53.612 115.952,53.612 115.952,8.252 
						131.331,8.252 131.331,2.776 94.105,2.776 					"/>
					<path style="fill:#214884;" d="M170.529,32.799c0,12.215-5.318,16.056-12.055,16.056c-6.638,0-11.8-3.841-11.8-16.056V2.776
						h-6.469V32.62c0,16.315,7.892,21.922,18.268,21.922c10.378,0,18.254-5.607,18.254-21.922V2.776h-6.199V32.799z"/>
					<path style="fill:#214884;" d="M196.845,8.024h8.523c7.909,0,12.265,2.373,12.265,9.06c0,6.589-4.355,9.794-12.265,9.794
						h-8.523V8.024z M224.085,17.084c0-10.59-7.434-14.308-17.787-14.308h-15.922v50.836h6.469V32.126h9.187l12.238,21.486h7.332
						L212.65,31.396C219.553,29.704,224.085,25.003,224.085,17.084z"/>
					<polygon style="fill:#214884;" points="240.917,48.138 240.917,29.655 260.177,29.655 260.177,24.181 240.917,24.181 
						240.917,8.252 263.748,8.252 263.748,2.776 234.448,2.776 234.448,53.612 264.522,53.612 264.522,48.138 					"/>
				</g>
				<g>
					<polygon style="fill:#1F4480;" points="10.342,53.273 16.81,53.273 16.81,30.531 36.184,30.531 36.184,25.057 16.81,25.057 
						16.81,7.913 39.658,7.913 39.658,2.438 10.342,2.438 					"/>
					<path style="fill:#1F4480;" d="M78.714,32.46c0,12.216-5.317,16.057-12.054,16.057c-6.638,0-11.801-3.841-11.801-16.057V2.438
						h-6.468v29.844c0,16.313,7.893,21.922,18.269,21.922c10.378,0,18.254-5.608,18.254-21.922V2.438h-6.2V32.46z"/>
					<polygon style="fill:#1F4480;" points="93.768,7.913 109.145,7.913 109.145,53.273 115.613,53.273 115.613,7.913 
						130.992,7.913 130.992,2.438 93.768,2.438 					"/>
					<path style="fill:#1F4480;" d="M170.19,32.46c0,12.216-5.317,16.057-12.056,16.057c-6.637,0-11.799-3.841-11.799-16.057V2.438
						h-6.469v29.844c0,16.313,7.893,21.922,18.268,21.922c10.378,0,18.255-5.608,18.255-21.922V2.438h-6.199V32.46z"/>
					<path style="fill:#1F4480;" d="M196.506,7.685h8.523c7.91,0,12.265,2.373,12.265,9.061c0,6.59-4.355,9.794-12.265,9.794h-8.523
						V7.685z M223.746,16.745c0-10.59-7.435-14.308-17.788-14.308h-15.921v50.836h6.469V31.787h9.188l12.236,21.486h7.334
						l-12.952-22.216C219.214,29.366,223.746,24.664,223.746,16.745z"/>
					<polygon style="fill:#1F4480;" points="240.577,47.798 240.577,29.316 259.838,29.316 259.838,23.842 240.577,23.842 
						240.577,7.913 263.409,7.913 263.409,2.438 234.109,2.438 234.109,53.273 264.184,53.273 264.184,47.798 					"/>
				</g>
				<g>
					<polygon style="fill:#1D417C;" points="10.002,52.935 16.471,52.935 16.471,30.192 35.845,30.192 35.845,24.717 16.471,24.717 
						16.471,7.573 39.318,7.573 39.318,2.099 10.002,2.099 					"/>
					<path style="fill:#1D417C;" d="M78.375,32.12c0,12.217-5.317,16.058-12.054,16.058c-6.638,0-11.8-3.841-11.8-16.058V2.099
						h-6.469v29.844c0,16.314,7.893,21.922,18.269,21.922c10.378,0,18.254-5.607,18.254-21.922V2.099h-6.2V32.12z"/>
					<polygon style="fill:#1D417C;" points="93.428,7.573 108.806,7.573 108.806,52.935 115.273,52.935 115.273,7.573 
						130.654,7.573 130.654,2.099 93.428,2.099 					"/>
					<path style="fill:#1D417C;" d="M169.851,32.12c0,12.217-5.317,16.058-12.053,16.058c-6.638,0-11.801-3.841-11.801-16.058V2.099
						h-6.469v29.844c0,16.314,7.893,21.922,18.27,21.922c10.378,0,18.253-5.607,18.253-21.922V2.099h-6.2V32.12z"/>
					<path style="fill:#1D417C;" d="M196.167,7.346h8.524c7.909,0,12.264,2.373,12.264,9.061c0,6.59-4.354,9.794-12.264,9.794
						h-8.524V7.346z M223.407,16.406c0-10.59-7.434-14.308-17.788-14.308h-15.92v50.836h6.468V31.447h9.188l12.236,21.487h7.334
						L211.973,30.72C218.874,29.026,223.407,24.325,223.407,16.406z"/>
					<polygon style="fill:#1D417C;" points="240.24,47.459 240.24,28.979 259.5,28.979 259.5,23.503 240.24,23.503 240.24,7.573 
						263.071,7.573 263.071,2.099 233.77,2.099 233.77,52.935 263.844,52.935 263.844,47.459 					"/>
				</g>
			</g>
			<g>
				<polygon style="fill:#3565AA;" points="10.002,52.935 16.471,52.935 16.471,30.192 35.845,30.192 35.845,24.717 16.471,24.717 
					16.471,7.573 39.318,7.573 39.318,2.099 10.002,2.099 				"/>
				<path style="fill:#3565AA;" d="M78.375,32.12c0,12.217-5.317,16.058-12.054,16.058c-6.638,0-11.8-3.841-11.8-16.058V2.099
					h-6.469v29.844c0,16.314,7.893,21.922,18.269,21.922c10.378,0,18.254-5.607,18.254-21.922V2.099h-6.2V32.12z"/>
				<polygon style="fill:#3565AA;" points="93.428,7.573 108.806,7.573 108.806,52.935 115.273,52.935 115.273,7.573 130.654,7.573 
					130.654,2.099 93.428,2.099 				"/>
				<path style="fill:#3565AA;" d="M169.851,32.12c0,12.217-5.317,16.058-12.053,16.058c-6.638,0-11.801-3.841-11.801-16.058V2.099
					h-6.469v29.844c0,16.314,7.893,21.922,18.27,21.922c10.378,0,18.253-5.607,18.253-21.922V2.099h-6.2V32.12z"/>
				<path style="fill:#3565AA;" d="M223.407,16.406c0-10.59-7.434-14.308-17.788-14.308h-15.92v50.836h6.468V31.447h9.188
					l12.236,21.487h7.334L211.973,30.72C218.874,29.026,223.407,24.325,223.407,16.406z M196.167,7.346h8.524
					c7.909,0,12.264,2.373,12.264,9.061c0,6.59-4.354,9.794-12.264,9.794h-8.524V7.346z"/>
				<polygon style="fill:#3565AA;" points="240.24,47.459 240.24,28.979 259.5,28.979 259.5,23.503 240.24,23.503 240.24,7.573 
					263.071,7.573 263.071,2.099 233.77,2.099 233.77,52.935 263.844,52.935 263.844,47.459 				"/>
			</g>
			<g>
				<g>
					<polygon style="fill:#FFFFFF;" points="11.019,3.114 39.318,3.114 39.318,2.099 10.002,2.099 10.002,52.935 11.019,52.935 
											"/>
					<rect x="17.487" y="24.717" style="fill:#FFFFFF;" width="18.357" height="1.017"/>
				</g>
				<g>
					<path style="fill:#FFFFFF;" d="M67.338,49.194c6.736,0,12.054-3.841,12.054-16.058V3.114h5.184V2.099h-6.2V32.12
						c0,12.217-5.317,16.058-12.054,16.058c-2.826,0-5.379-0.707-7.387-2.449C61.057,48.228,64.011,49.194,67.338,49.194z"/>
					<path style="fill:#FFFFFF;" d="M49.068,32.959V3.114h5.453V2.099h-6.469v29.844c0,8.748,2.283,14.394,5.988,17.772
						C50.94,46.257,49.068,40.878,49.068,32.959z"/>
				</g>
				<g>
					<polygon style="fill:#FFFFFF;" points="94.444,3.114 130.654,3.114 130.654,2.099 93.428,2.099 93.428,7.573 94.444,7.573 
											"/>
					<rect x="108.806" y="8.59" style="fill:#FFFFFF;" width="1.017" height="44.345"/>
				</g>
				<g>
					<path style="fill:#FFFFFF;" d="M158.814,49.194c6.736,0,12.054-3.841,12.054-16.058V3.114h5.184V2.099h-6.2V32.12
						c0,12.217-5.317,16.058-12.053,16.058c-2.827,0-5.381-0.707-7.387-2.449C152.531,48.228,155.487,49.194,158.814,49.194z"/>
					<path style="fill:#FFFFFF;" d="M140.545,32.959V3.114h5.452V2.099h-6.469v29.844c0,8.748,2.283,14.394,5.987,17.772
						C142.416,46.257,140.545,40.878,140.545,32.959z"/>
				</g>
				<g>
					<path style="fill:#FFFFFF;" d="M217.972,17.422c0-3.078-0.935-5.233-2.703-6.673c1.106,1.383,1.686,3.233,1.686,5.657
						c0,6.59-4.354,9.794-12.264,9.794h-7.508v1.017h8.523C213.616,27.217,217.972,24.012,217.972,17.422z"/>
					<polygon style="fill:#FFFFFF;" points="206.37,32.465 205.934,32.465 217.591,52.935 218.029,52.935 					"/>
					<path style="fill:#FFFFFF;" d="M190.715,3.114h15.922c5.713,0,10.528,1.142,13.705,3.935
						c-3.111-3.538-8.361-4.951-14.723-4.951h-15.92v50.836h1.016V3.114z"/>
				</g>
				<g>
					<rect x="241.256" y="47.459" style="fill:#FFFFFF;" width="22.588" height="1.018"/>
					<rect x="241.256" y="23.503" style="fill:#FFFFFF;" width="18.244" height="1.017"/>
					<polygon style="fill:#FFFFFF;" points="234.787,3.114 263.071,3.114 263.071,2.099 233.77,2.099 233.77,52.935 234.787,52.935 
											"/>
				</g>
			</g>
		</g>
		<g>
			<g>
				<polygon style="fill:#5E5E5E;" points="7.552,66.449 13.571,66.449 13.571,79.491 16.262,79.491 16.262,66.449 22.184,66.449 
					22.184,64.201 7.552,64.201 				"/>
				<path style="fill:#111111;" d="M22.184,64.201v2.248h-5.922v13.042h-2.69V66.449H7.552v-2.248H22.184 M22.184,63.51H7.552
					c-0.381,0-0.69,0.31-0.69,0.691v2.248c0,0.381,0.31,0.691,0.69,0.691h5.328v12.351c0,0.383,0.309,0.692,0.691,0.692h2.69
					c0.382,0,0.691-0.31,0.691-0.692V67.141h5.23c0.382,0,0.691-0.311,0.691-0.691v-2.248C22.875,63.819,22.565,63.51,22.184,63.51
					L22.184,63.51z"/>
			</g>
			<g>
				<path style="fill:#5E5E5E;" d="M33.368,65.012c-0.541,0.54-0.812,1.196-0.812,1.967v12.513h14.512v-2.247H35.345v-4.258h11.724
					v-2.259H35.345v-3.209c0-0.295,0.104-0.547,0.313-0.757c0.209-0.209,0.458-0.313,0.745-0.313h10.665v-2.248H35.324
					C34.561,64.201,33.908,64.472,33.368,65.012z"/>
				<path style="fill:#111111;" d="M47.068,64.201v2.248H36.403c-0.287,0-0.536,0.103-0.745,0.313
					c-0.209,0.21-0.313,0.462-0.313,0.757v3.209h11.724v2.259H35.345v4.258h11.724v2.247H32.557V66.979
					c0-0.771,0.271-1.427,0.812-1.967c0.54-0.54,1.192-0.811,1.956-0.811H47.068 M47.068,63.51H35.324
					c-0.951,0-1.774,0.341-2.446,1.013c-0.671,0.673-1.013,1.498-1.013,2.456v12.513c0,0.383,0.31,0.692,0.691,0.692h14.512
					c0.383,0,0.692-0.31,0.692-0.692v-2.247c0-0.382-0.31-0.692-0.692-0.692H36.036v-2.875h11.032c0.383,0,0.692-0.309,0.692-0.691
					v-2.259c0-0.382-0.31-0.69-0.692-0.69H36.036v-2.519c0-0.112,0.031-0.188,0.111-0.268c0.08-0.079,0.152-0.11,0.256-0.11h10.665
					c0.383,0,0.692-0.311,0.692-0.691v-2.248C47.761,63.819,47.451,63.51,47.068,63.51L47.068,63.51z"/>
			</g>
			<g>
				<path style="fill:#5E5E5E;" d="M58.836,65.595c-0.929,0.93-1.393,2.053-1.393,3.372v5.77c0,1.313,0.465,2.432,1.393,3.361
					c0.938,0.929,2.061,1.394,3.373,1.394h12.578v-2.247H63.289c-0.843,0-1.561-0.299-2.15-0.896
					c-0.599-0.598-0.896-1.315-0.896-2.15v-4.691c0-0.843,0.298-1.563,0.896-2.161c0.59-0.598,1.308-0.896,2.15-0.896h11.498v-2.248
					H62.209C60.896,64.201,59.773,64.666,58.836,65.595z"/>
				<path style="fill:#111111;" d="M74.787,64.201v2.248H63.289c-0.843,0-1.561,0.299-2.15,0.896
					c-0.599,0.598-0.896,1.318-0.896,2.161v4.691c0,0.835,0.298,1.553,0.896,2.15c0.59,0.598,1.308,0.896,2.15,0.896h11.498v2.247
					H62.209c-1.313,0-2.436-0.465-3.373-1.394c-0.929-0.93-1.393-2.049-1.393-3.361v-5.77c0-1.319,0.465-2.442,1.393-3.372
					c0.938-0.929,2.061-1.394,3.373-1.394H74.787 M74.787,63.51H62.209c-1.495,0-2.794,0.537-3.859,1.595
					c-1.061,1.061-1.598,2.359-1.598,3.862v5.77c0,1.496,0.537,2.791,1.596,3.851c1.067,1.06,2.366,1.597,3.861,1.597h12.578
					c0.381,0,0.69-0.31,0.69-0.692v-2.247c0-0.382-0.31-0.692-0.69-0.692H63.289c-0.657,0-1.199-0.225-1.658-0.691
					c-0.471-0.471-0.698-1.014-0.698-1.664v-4.691c0-0.657,0.228-1.205,0.695-1.672c0.462-0.468,1.005-0.694,1.661-0.694h11.498
					c0.381,0,0.69-0.311,0.69-0.691v-2.248C75.478,63.819,75.168,63.51,74.787,63.51L74.787,63.51z"/>
			</g>
			<g>
				<polygon style="fill:#5E5E5E;" points="97.965,70.62 87.959,70.62 87.959,64.201 85.16,64.201 85.16,79.491 87.959,79.491 
					87.959,72.879 97.965,72.879 97.965,79.491 100.753,79.491 100.753,64.201 97.965,64.201 				"/>
				<path style="fill:#111111;" d="M100.753,64.201v15.29h-2.788v-6.612H87.959v6.612H85.16v-15.29h2.799v6.419h10.006v-6.419
					H100.753 M100.753,63.51h-2.788c-0.382,0-0.691,0.31-0.691,0.691v5.728H88.65v-5.728c0-0.382-0.31-0.691-0.691-0.691H85.16
					c-0.383,0-0.691,0.31-0.691,0.691v15.29c0,0.383,0.309,0.692,0.691,0.692h2.799c0.382,0,0.691-0.31,0.691-0.692v-5.922h8.623
					v5.922c0,0.383,0.31,0.692,0.691,0.692h2.788c0.382,0,0.691-0.31,0.691-0.692v-15.29
					C101.444,63.819,101.135,63.51,100.753,63.51L100.753,63.51z"/>
			</g>
			<g>
				<path style="fill:#5E5E5E;" d="M123.705,64.201h-7.813c-1.312,0-2.431,0.465-3.36,1.394c-0.936,0.93-1.404,2.053-1.404,3.372
					v10.524h2.798v-9.984c0-0.843,0.299-1.563,0.898-2.161c0.59-0.598,1.307-0.896,2.15-0.896h5.65c0.844,0,1.563,0.299,2.162,0.896
					c0.59,0.598,0.886,1.318,0.886,2.161v9.975h2.799V68.967c0-1.319-0.465-2.442-1.393-3.372
					C126.14,64.666,125.016,64.201,123.705,64.201z"/>
				<path style="fill:#111111;" d="M123.705,64.201c1.311,0,2.435,0.465,3.371,1.394c0.929,0.93,1.393,2.053,1.393,3.372v10.515
					h-2.799v-9.975c0-0.843-0.296-1.563-0.886-2.161c-0.599-0.598-1.318-0.896-2.162-0.896h-5.65c-0.844,0-1.561,0.299-2.15,0.896
					c-0.599,0.598-0.898,1.318-0.898,2.161v9.984h-2.798V68.967c0-1.319,0.469-2.442,1.404-3.372c0.93-0.929,2.049-1.394,3.36-1.394
					H123.705 M123.705,63.51h-7.813c-1.495,0-2.79,0.537-3.85,1.596c-1.065,1.059-1.607,2.358-1.607,3.861v10.524
					c0,0.383,0.31,0.692,0.692,0.692h2.798c0.382,0,0.692-0.31,0.692-0.692v-9.984c0-0.657,0.227-1.205,0.693-1.672
					c0.463-0.468,1.005-0.694,1.662-0.694h5.65c0.658,0,1.205,0.228,1.673,0.694c0.46,0.465,0.685,1.014,0.685,1.672v9.975
					c0,0.381,0.31,0.69,0.69,0.69h2.799c0.383,0,0.692-0.31,0.692-0.69V68.967c0-1.503-0.538-2.802-1.598-3.861
					C126.498,64.047,125.199,63.51,123.705,63.51L123.705,63.51z"/>
			</g>
			<g>
				<path style="fill:#5E5E5E;" d="M151.421,64.201h-7.811c-1.313,0-2.436,0.465-3.372,1.394c-0.93,0.93-1.394,2.053-1.394,3.372
					v5.77c0,1.313,0.464,2.432,1.394,3.361c0.936,0.929,2.06,1.394,3.372,1.394h7.811c1.313,0,2.436-0.465,3.372-1.394
					c0.93-0.93,1.395-2.049,1.395-3.361v-5.77c0-1.319-0.465-2.442-1.395-3.372C153.857,64.666,152.733,64.201,151.421,64.201z
					 M153.388,74.197c0,0.835-0.298,1.553-0.896,2.15c-0.591,0.598-1.308,0.896-2.149,0.896h-5.652c-0.844,0-1.561-0.299-2.15-0.896
					c-0.599-0.598-0.896-1.315-0.896-2.15v-4.691c0-0.843,0.298-1.563,0.896-2.161c0.59-0.598,1.307-0.896,2.15-0.896h5.652
					c0.842,0,1.559,0.299,2.149,0.896c0.599,0.598,0.896,1.318,0.896,2.161V74.197z"/>
				<path style="fill:#111111;" d="M151.421,64.201c1.313,0,2.436,0.465,3.372,1.394c0.93,0.93,1.395,2.053,1.395,3.372v5.77
					c0,1.313-0.465,2.432-1.395,3.361c-0.936,0.929-2.06,1.394-3.372,1.394h-7.811c-1.313,0-2.436-0.465-3.372-1.394
					c-0.93-0.93-1.394-2.049-1.394-3.361v-5.77c0-1.319,0.464-2.442,1.394-3.372c0.936-0.929,2.06-1.394,3.372-1.394H151.421
					 M144.689,77.244h5.652c0.842,0,1.559-0.299,2.149-0.896c0.599-0.598,0.896-1.315,0.896-2.15v-4.691
					c0-0.843-0.298-1.563-0.896-2.161c-0.591-0.598-1.308-0.896-2.149-0.896h-5.652c-0.844,0-1.561,0.299-2.15,0.896
					c-0.599,0.598-0.896,1.318-0.896,2.161v4.691c0,0.835,0.298,1.553,0.896,2.15C143.129,76.945,143.846,77.244,144.689,77.244
					 M151.421,63.51h-7.811c-1.495,0-2.793,0.537-3.859,1.595c-1.061,1.061-1.598,2.359-1.598,3.862v5.77
					c0,1.496,0.537,2.791,1.596,3.851c1.068,1.06,2.366,1.597,3.861,1.597h7.811c1.495,0,2.794-0.537,3.859-1.595
					c1.061-1.062,1.599-2.356,1.599-3.853v-5.77c0-1.503-0.538-2.802-1.598-3.861C154.215,64.047,152.916,63.51,151.421,63.51
					L151.421,63.51z M144.689,76.553c-0.656,0-1.199-0.225-1.658-0.691c-0.471-0.471-0.697-1.014-0.697-1.664v-4.691
					c0-0.657,0.227-1.205,0.694-1.672c0.462-0.468,1.005-0.694,1.661-0.694h5.652c0.655,0,1.198,0.227,1.657,0.691
					c0.471,0.47,0.698,1.018,0.698,1.675v4.691c0,0.65-0.228,1.193-0.694,1.66c-0.462,0.47-1.005,0.695-1.661,0.695H144.689
					L144.689,76.553z"/>
			</g>
			<g>
				<path style="fill:#5E5E5E;" d="M169.661,76.931c-0.2-0.209-0.302-0.461-0.302-0.757V64.201h-2.799v12.514
					c0,0.771,0.271,1.426,0.811,1.967c0.541,0.54,1.195,0.81,1.967,0.81h10.654v-2.247h-9.574
					C170.123,77.244,169.871,77.14,169.661,76.931z"/>
				<path style="fill:#111111;" d="M169.359,64.201v11.973c0,0.296,0.102,0.548,0.302,0.757c0.21,0.209,0.462,0.313,0.757,0.313
					h9.574v2.247h-10.654c-0.771,0-1.426-0.27-1.967-0.81c-0.54-0.541-0.811-1.196-0.811-1.967V64.201H169.359 M169.359,63.51
					h-2.799c-0.382,0-0.691,0.31-0.691,0.691v12.514c0,0.957,0.341,1.783,1.013,2.455c0.672,0.672,1.498,1.014,2.456,1.014h10.654
					c0.382,0,0.691-0.31,0.691-0.692v-2.247c0-0.382-0.31-0.692-0.691-0.692h-9.574c-0.113,0-0.188-0.031-0.267-0.111
					c-0.069-0.071-0.101-0.15-0.101-0.268V64.201C170.051,63.819,169.741,63.51,169.359,63.51L169.359,63.51z"/>
			</g>
			<g>
				<path style="fill:#5E5E5E;" d="M202.943,64.201h-7.813c-1.312,0-2.435,0.465-3.371,1.394c-0.93,0.93-1.395,2.053-1.395,3.372
					v5.77c0,1.313,0.465,2.432,1.395,3.361c0.937,0.929,2.06,1.394,3.371,1.394h7.813c1.313,0,2.436-0.465,3.372-1.394
					c0.93-0.93,1.395-2.049,1.395-3.361v-5.77c0-1.319-0.465-2.442-1.395-3.372C205.379,64.666,204.256,64.201,202.943,64.201z
					 M204.91,74.197c0,0.835-0.298,1.553-0.896,2.15c-0.59,0.598-1.308,0.896-2.15,0.896h-5.651c-0.843,0-1.559-0.299-2.15-0.896
					c-0.599-0.598-0.897-1.315-0.897-2.15v-4.691c0-0.843,0.299-1.563,0.897-2.161c0.591-0.598,1.308-0.896,2.15-0.896h5.651
					c0.843,0,1.561,0.299,2.15,0.896c0.599,0.598,0.896,1.318,0.896,2.161V74.197z"/>
				<path style="fill:#111111;" d="M202.943,64.201c1.313,0,2.436,0.465,3.372,1.394c0.93,0.93,1.395,2.053,1.395,3.372v5.77
					c0,1.313-0.465,2.432-1.395,3.361c-0.936,0.929-2.059,1.394-3.372,1.394h-7.813c-1.312,0-2.435-0.465-3.371-1.394
					c-0.93-0.93-1.395-2.049-1.395-3.361v-5.77c0-1.319,0.465-2.442,1.395-3.372c0.937-0.929,2.06-1.394,3.371-1.394H202.943
					 M196.212,77.244h5.651c0.843,0,1.561-0.299,2.15-0.896c0.599-0.598,0.896-1.315,0.896-2.15v-4.691
					c0-0.843-0.298-1.563-0.896-2.161c-0.59-0.598-1.308-0.896-2.15-0.896h-5.651c-0.843,0-1.559,0.299-2.15,0.896
					c-0.599,0.598-0.897,1.318-0.897,2.161v4.691c0,0.835,0.299,1.553,0.897,2.15C194.652,76.945,195.369,77.244,196.212,77.244
					 M202.943,63.51h-7.813c-1.494,0-2.792,0.537-3.859,1.595c-1.06,1.061-1.597,2.359-1.597,3.862v5.77
					c0,1.496,0.537,2.791,1.597,3.851c1.067,1.06,2.365,1.597,3.859,1.597h7.813c1.495,0,2.793-0.537,3.859-1.595
					c1.061-1.062,1.598-2.356,1.598-3.853v-5.77c0-1.503-0.537-2.802-1.596-3.861C205.736,64.047,204.439,63.51,202.943,63.51
					L202.943,63.51z M196.212,76.553c-0.657,0-1.199-0.225-1.657-0.691c-0.472-0.471-0.698-1.014-0.698-1.664v-4.691
					c0-0.657,0.226-1.205,0.694-1.672c0.462-0.468,1.005-0.694,1.661-0.694h5.651c0.656,0,1.198,0.227,1.658,0.691
					c0.471,0.47,0.698,1.018,0.698,1.675v4.691c0,0.65-0.227,1.193-0.695,1.66c-0.462,0.47-1.004,0.695-1.661,0.695H196.212
					L196.212,76.553z"/>
			</g>
			<g>
				<path style="fill:#5E5E5E;" d="M225.799,72.446h6.829v1.751c0,0.835-0.296,1.553-0.886,2.15
					c-0.599,0.598-1.318,0.896-2.162,0.896h-5.652c-0.834,0-1.551-0.299-2.148-0.896c-0.599-0.598-0.897-1.315-0.897-2.15v-4.691
					c0-0.843,0.299-1.563,0.897-2.161c0.598-0.598,1.314-0.896,2.148-0.896h9.479v-2.248h-10.558c-1.312,0-2.432,0.465-3.36,1.394
					c-0.936,0.93-1.405,2.053-1.405,3.372v5.77c0,1.313,0.469,2.432,1.405,3.361c0.929,0.929,2.049,1.394,3.36,1.394h7.813
					c1.318,0,2.442-0.465,3.371-1.394c0.93-0.93,1.395-2.049,1.395-3.361v-4.548h-9.628V72.446z"/>
				<path style="fill:#111111;" d="M233.406,64.201v2.248h-9.479c-0.834,0-1.551,0.299-2.148,0.896
					c-0.599,0.598-0.897,1.318-0.897,2.161v4.691c0,0.835,0.299,1.553,0.897,2.15c0.598,0.598,1.314,0.896,2.148,0.896h5.652
					c0.844,0,1.564-0.299,2.162-0.896c0.59-0.598,0.886-1.315,0.886-2.15v-1.751h-6.829v-2.258h9.628v4.548
					c0,1.313-0.465,2.432-1.395,3.361c-0.929,0.929-2.053,1.394-3.371,1.394h-7.813c-1.312,0-2.432-0.465-3.36-1.394
					c-0.936-0.93-1.405-2.049-1.405-3.361v-5.77c0-1.319,0.469-2.442,1.405-3.372c0.929-0.929,2.049-1.394,3.36-1.394H233.406
					 M233.406,63.51h-10.558c-1.495,0-2.791,0.537-3.851,1.596c-1.064,1.059-1.606,2.358-1.606,3.861v5.77
					c0,1.496,0.542,2.792,1.608,3.853c1.058,1.058,2.354,1.595,3.849,1.595h7.813c1.502,0,2.801-0.537,3.86-1.597
					c1.059-1.06,1.597-2.354,1.597-3.851v-4.548c0-0.383-0.31-0.692-0.691-0.692h-9.628c-0.383,0-0.692,0.31-0.692,0.692v2.258
					c0,0.382,0.309,0.691,0.692,0.691h6.138v1.06c0,0.651-0.225,1.196-0.686,1.664c-0.465,0.464-1.012,0.691-1.67,0.691h-5.652
					c-0.649,0-1.192-0.227-1.66-0.694c-0.468-0.468-0.693-1.011-0.693-1.661v-4.691c0-0.657,0.226-1.205,0.693-1.672
					c0.468-0.467,1.012-0.694,1.66-0.694h9.479c0.381,0,0.691-0.311,0.691-0.691v-2.248C234.098,63.819,233.787,63.51,233.406,63.51
					L233.406,63.51z"/>
			</g>
			<g>
				<path style="fill:#5E5E5E;" d="M260.345,64.201v2.918c0,1.412-0.298,2.417-0.897,3.014c-0.598,0.599-1.314,0.897-2.15,0.897
					h-5.65c-0.844,0-1.564-0.299-2.161-0.897c-0.591-0.597-0.887-1.601-0.887-3.014v-2.918h-2.798v3.469
					c0,1.889,0.464,3.296,1.394,4.226c0.929,0.929,2.053,1.393,3.371,1.393h6.732c1.146,0,2.162-0.367,3.048-1.102v2.011
					c0,0.835-0.298,1.553-0.897,2.15c-0.598,0.598-1.314,0.896-2.15,0.896h-11.496v2.247h12.577c1.312,0,2.432-0.465,3.361-1.394
					c0.935-0.93,1.404-2.049,1.404-3.361V64.201H260.345z"/>
				<path style="fill:#111111;" d="M263.144,64.201v10.535c0,1.313-0.47,2.432-1.404,3.361c-0.93,0.929-2.05,1.394-3.361,1.394
					h-12.577v-2.247h11.496c0.837,0,1.553-0.299,2.15-0.896c0.6-0.598,0.897-1.315,0.897-2.15v-2.011
					c-0.886,0.734-1.901,1.102-3.048,1.102h-6.732c-1.318,0-2.442-0.464-3.371-1.393c-0.93-0.93-1.394-2.337-1.394-4.226v-3.469
					h2.798v2.918c0,1.412,0.296,2.417,0.887,3.014c0.598,0.599,1.317,0.897,2.161,0.897h5.65c0.837,0,1.553-0.299,2.15-0.897
					c0.6-0.597,0.897-1.601,0.897-3.014v-2.918H263.144 M263.144,63.51h-2.799c-0.382,0-0.691,0.31-0.691,0.691v2.918
					c0,1.215-0.233,2.065-0.694,2.525c-0.467,0.468-1.011,0.694-1.662,0.694h-5.65c-0.658,0-1.205-0.227-1.673-0.694
					c-0.452-0.458-0.683-1.31-0.683-2.525v-2.918c0-0.382-0.311-0.691-0.692-0.691h-2.798c-0.383,0-0.692,0.31-0.692,0.691v3.469
					c0,2.069,0.537,3.654,1.597,4.714c1.06,1.06,2.358,1.597,3.86,1.597h6.732c0.844,0,1.632-0.177,2.356-0.527v0.744
					c0,0.65-0.227,1.193-0.694,1.66c-0.467,0.468-1.011,0.695-1.662,0.695h-11.496c-0.383,0-0.692,0.31-0.692,0.692v2.247
					c0,0.383,0.31,0.692,0.692,0.692h12.577c1.495,0,2.79-0.537,3.851-1.597c1.066-1.059,1.607-2.354,1.607-3.851V64.201
					C263.835,63.819,263.525,63.51,263.144,63.51L263.144,63.51z"/>
			</g>
		</g>
	</g>
</g>
</svg>
